<svg xmlns="http://www.w3.org/2000/svg" viewBox="0 0 512 512" height="512.0px" width="512.0px">
<path id="" fill="#B0E2FF" fill-opacity="1.0" stroke="#000000" stroke-width="0.0" stroke-opacity="1.0" stroke-linecap="round" stroke-linejoin="round"  filling="0" d="M0.000000 0.000000 C170.666672 0.000000 341.333313 0.000000 512.000000 0.000000 C512.000000 170.666672 512.000000 341.333313 512.000000 512.000000 C341.333313 512.000000 170.666672 512.000000 0.000000 512.000000 C0.000000 341.333313 0.000000 170.666672 0.000000 0.000000"></path>
<path id="" fill="#FFFFFF" fill-opacity="1.0" stroke="#000000" stroke-width="0.0" stroke-opacity="1.0" stroke-linecap="round" stroke-linejoin="round"  filling="0" d="M436.000000 256.000000 C436.000000 279.860321 417.022827 302.767822 383.279236 319.639618 C349.535645 336.511414 303.720673 346.000000 256.000000 346.000000 C208.279343 346.000000 162.464386 336.511414 128.720779 319.639618 C94.977173 302.767822 76.000000 279.860321 76.000000 256.000000 C76.000000 232.139664 94.977173 209.232178 128.720779 192.360382 C162.464386 175.488586 208.279343 166.000000 256.000000 166.000000 C303.720673 166.000000 349.535645 175.488586 383.279236 192.360382 C417.022827 209.232178 436.000000 232.139664 436.000000 256.000000"></path>
<path id="" fill="#FFFFFF" fill-opacity="1.0" stroke="#000000" stroke-width="0.0" stroke-opacity="1.0" stroke-linecap="round" stroke-linejoin="round"  filling="0" d="M220.000000 200.000000 C220.000000 215.906891 213.674271 231.178543 202.426407 242.426407 C191.178543 253.674271 175.906891 260.000000 160.000000 260.000000 C144.093109 260.000000 128.821457 253.674271 117.573593 242.426407 C106.325729 231.178543 100.000000 215.906891 100.000000 200.000000 C100.000000 184.093109 106.325729 168.821457 117.573593 157.573593 C128.821457 146.325729 144.093109 140.000000 160.000000 140.000000 C175.906891 140.000000 191.178543 146.325729 202.426407 157.573593 C213.674271 168.821457 220.000000 184.093109 220.000000 200.000000"></path>
<path id="" fill="#FFFFFF" fill-opacity="1.0" stroke="#000000" stroke-width="0.0" stroke-opacity="1.0" stroke-linecap="round" stroke-linejoin="round"  filling="0" d="M326.000000 180.000000 C326.000000 198.558029 318.619965 216.374954 305.497467 229.497467 C292.374969 242.619980 274.558044 250.000000 256.000000 250.000000 C237.441971 250.000000 219.625046 242.619980 206.502533 229.497467 C193.380020 216.374954 186.000000 198.558029 186.000000 180.000000 C186.000000 161.441971 193.380020 143.625046 206.502533 130.502533 C219.625046 117.380020 237.441971 110.000000 256.000000 110.000000 C274.558044 110.000000 292.374969 117.380020 305.497467 130.502533 C318.619965 143.625046 326.000000 161.441971 326.000000 180.000000"></path>
<path id="" fill="#FFFFFF" fill-opacity="1.0" stroke="#000000" stroke-width="0.0" stroke-opacity="1.0" stroke-linecap="round" stroke-linejoin="round"  filling="0" d="M417.000000 210.000000 C417.000000 227.232452 410.147125 243.776749 397.961945 255.961945 C385.776764 268.147125 369.232452 275.000000 352.000000 275.000000 C334.767548 275.000000 318.223236 268.147125 306.038055 255.961945 C293.852875 243.776749 287.000000 227.232452 287.000000 210.000000 C287.000000 192.767548 293.852875 176.223251 306.038055 164.038055 C318.223236 151.852859 334.767548 145.000000 352.000000 145.000000 C369.232452 145.000000 385.776764 151.852859 397.961945 164.038055 C410.147125 176.223251 417.000000 192.767548 417.000000 210.000000"></path>
<path id="" fill="#FFFFFF" fill-opacity="1.0" stroke="#000000" stroke-width="0.0" stroke-opacity="1.0" stroke-linecap="round" stroke-linejoin="round"  filling="0" d="M260.000000 310.000000 C260.000000 321.930176 253.674271 333.383881 242.426407 341.819794 C231.178543 350.255707 215.906891 355.000000 200.000000 355.000000 C184.093109 355.000000 168.821457 350.255707 157.573593 341.819794 C146.325729 333.383881 140.000000 321.930176 140.000000 310.000000 C140.000000 298.069824 146.325729 286.616119 157.573593 278.180206 C168.821457 269.744293 184.093109 265.000000 200.000000 265.000000 C215.906891 265.000000 231.178543 269.744293 242.426407 278.180206 C253.674271 286.616119 260.000000 298.069824 260.000000 310.000000"></path>
<path id="" fill="#FFFFFF" fill-opacity="1.0" stroke="#000000" stroke-width="0.0" stroke-opacity="1.0" stroke-linecap="round" stroke-linejoin="round"  filling="0" d="M382.000000 300.000000 C382.000000 313.255737 374.619965 325.982117 361.497467 335.355347 C348.374969 344.728577 330.558044 350.000000 312.000000 350.000000 C293.441956 350.000000 275.625031 344.728577 262.502533 335.355347 C249.380020 325.982117 242.000000 313.255737 242.000000 300.000000 C242.000000 286.744263 249.380020 274.017883 262.502533 264.644653 C275.625031 255.271423 293.441956 250.000000 312.000000 250.000000 C330.558044 250.000000 348.374969 255.271423 361.497467 264.644653 C374.619965 274.017883 382.000000 286.744263 382.000000 300.000000"></path>
<path id="" fill="#FFFFFF" fill-opacity="1.0" stroke="#000000" stroke-width="0.0" stroke-opacity="1.0" stroke-linecap="round" stroke-linejoin="round"  filling="0" d="M165.000000 256.000000 C165.000000 267.930176 160.255707 279.383881 151.819809 287.819794 C143.383911 296.255707 131.930161 301.000000 120.000000 301.000000 C108.069832 301.000000 96.616089 296.255707 88.180191 287.819794 C79.744293 279.383881 75.000000 267.930176 75.000000 256.000000 C75.000000 244.069839 79.744293 232.616089 88.180191 224.180191 C96.616089 215.744293 108.069832 211.000000 120.000000 211.000000 C131.930161 211.000000 143.383911 215.744293 151.819809 224.180191 C160.255707 232.616089 165.000000 244.069839 165.000000 256.000000"></path>
<path id="" fill="#FFFFFF" fill-opacity="1.0" stroke="#000000" stroke-width="0.0" stroke-opacity="1.0" stroke-linecap="round" stroke-linejoin="round"  filling="0" d="M442.000000 256.000000 C442.000000 269.255737 436.728577 281.982117 427.355347 291.355347 C417.982117 300.728577 405.255737 306.000000 392.000000 306.000000 C378.744263 306.000000 366.017883 300.728577 356.644653 291.355347 C347.271423 281.982117 342.000000 269.255737 342.000000 256.000000 C342.000000 242.744263 347.271423 230.017883 356.644653 220.644653 C366.017883 211.271423 378.744263 206.000000 392.000000 206.000000 C405.255737 206.000000 417.982117 211.271423 427.355347 220.644653 C436.728577 230.017883 442.000000 242.744263 442.000000 256.000000"></path>
<path id="" fill="#FFFFFF" fill-opacity="1.0" stroke="#000000" stroke-width="0.0" stroke-opacity="1.0" stroke-linecap="round" stroke-linejoin="round"  filling="0" d="M260.000000 230.000000 C260.000000 240.604584 255.782852 250.785690 248.284271 258.284271 C240.785690 265.782837 230.604584 270.000000 220.000000 270.000000 C209.395416 270.000000 199.214310 265.782837 191.715729 258.284271 C184.217148 250.785690 180.000000 240.604584 180.000000 230.000000 C180.000000 219.395416 184.217148 209.214310 191.715729 201.715729 C199.214310 194.217148 209.395416 190.000000 220.000000 190.000000 C230.604584 190.000000 240.785690 194.217148 248.284271 201.715729 C255.782852 209.214310 260.000000 219.395416 260.000000 230.000000"></path>
<path id="" fill="#FFFFFF" fill-opacity="1.0" stroke="#000000" stroke-width="0.0" stroke-opacity="1.0" stroke-linecap="round" stroke-linejoin="round"  filling="0" d="M375.000000 240.000000 C375.000000 249.279022 371.309998 258.187500 364.748749 264.748749 C358.187500 271.309998 349.279022 275.000000 340.000000 275.000000 C330.720978 275.000000 321.812500 271.309998 315.251251 264.748749 C308.690002 258.187500 305.000000 249.279022 305.000000 240.000000 C305.000000 230.720978 308.690002 221.812515 315.251251 215.251266 C321.812500 208.690018 330.720978 205.000000 340.000000 205.000000 C349.279022 205.000000 358.187500 208.690018 364.748749 215.251266 C371.309998 221.812515 375.000000 230.720978 375.000000 240.000000"></path>
</svg>