<svg xmlns="http://www.w3.org/2000/svg" viewBox="0 0 512 512" height="512.0px" width="512.0px">
<path id="" fill="#5db3ec" fill-opacity="0.0" stroke="#000000" stroke-width="0.0" stroke-opacity="1.0" stroke-linecap="round" stroke-linejoin="round"  filling="0" d="M0.000000 0.000000 C200.666672 0.000000 500.333313 0.000000 512.000000 0.000000 C512.000000 300.666672 512.000000 500.333313 512.000000 512.000000 C341.333313 512.000000 300.666672 512.000000 0.000000 512.000000 C0.000000 341.333313 0.000000 300.666672 0.000000 0.000000"></path>
<path id="" fill="#4682B4" fill-opacity="1.0" stroke="#000000" stroke-width="0.0" stroke-opacity="1.0" stroke-linecap="round" stroke-linejoin="round"  filling="0" d="M406.000000 256.000000 C406.000000 269.255737 390.185669 281.982117 362.066010 291.355347 C333.946350 300.728577 295.767212 306.000000 256.000000 306.000000 C216.232788 306.000000 178.053665 300.728577 149.933990 291.355347 C121.814323 281.982117 106.000000 269.255737 106.000000 256.000000 C106.000000 242.744263 121.814323 230.017883 149.933990 220.644653 C178.053665 211.271423 216.232788 206.000000 256.000000 206.000000 C295.767212 206.000000 333.946350 211.271423 362.066010 220.644653 C390.185669 230.017883 406.000000 242.744263 406.000000 256.000000"></path>
<path id="" fill="#4682B4" fill-opacity="1.0" stroke="#000000" stroke-width="0.0" stroke-opacity="1.0" stroke-linecap="round" stroke-linejoin="round"  filling="0" d="M406.000000 256.000000 C419.333344 246.000000 432.666656 236.000000 446.000000 226.000000 C446.000000 246.000000 446.000000 266.000000 446.000000 286.000000 C432.666656 276.000000 419.333344 266.000000 406.000000 256.000000"></path>
<path id="" fill="#4682B4" fill-opacity="1.0" stroke="#000000" stroke-width="0.0" stroke-opacity="1.0" stroke-linecap="round" stroke-linejoin="round"  filling="0" d="M306.000000 206.000000 C312.666656 196.000000 319.333344 186.000000 326.000000 176.000000 C332.666656 186.000000 339.333344 196.000000 346.000000 206.000000 C332.666656 206.000000 319.333344 206.000000 306.000000 206.000000"></path>
<path id="" fill="#000000" fill-opacity="1.0" stroke="#000000" stroke-width="0.0" stroke-opacity="1.0" stroke-linecap="round" stroke-linejoin="round"  filling="0" d="M151.000000 246.000000 C151.000000 247.325577 150.472855 248.598221 149.535538 249.535538 C148.598221 250.472855 147.325577 251.000000 146.000000 251.000000 C144.674423 251.000000 143.401779 250.472855 142.464462 249.535538 C141.527145 248.598221 141.000000 247.325577 141.000000 246.000000 C141.000000 244.674423 141.527145 243.401779 142.464462 242.464462 C143.401779 241.527145 144.674423 241.000000 146.000000 241.000000 C147.325577 241.000000 148.598221 241.527145 149.535538 242.464462 C150.472855 243.401779 151.000000 244.674423 151.000000 246.000000"></path>
</svg>