<?xml version="1.0" ?>
<svg xmlns="http://www.w3.org/2000/svg" version="1.1" width="512" height="512" viewBox="0 0 512 512">
  <defs/>
  <g>
    <path d="M 246.40525818 242.38594055 C 247.36465454 244.30566406 248.39295959 246.02911377 249.33732605 247.66777039 C 250.01698303 249.27180481 250.42103577 250.71308899 250.61209106 251.87239075 C 250.45574951 252.81524658 249.89852905 253.47637939 248.99005127 253.75199890 C 247.70210266 253.64881897 245.95761108 253.26637268 243.84872437 252.73854065 C 241.35803223 252.18560791 238.46220398 251.61247253 235.33020020 250.84367371 C 231.86643982 249.88360596 228.19369507 248.73626709 224.30905151 247.46868896 C 220.21710205 246.02615356 215.89634705 244.62002563 211.44920349 243.11474609 C 206.89584351 241.46281433 202.25578308 239.76731873 197.46662903 237.95956421 C 192.66065979 236.17605591 187.81336975 234.18969727 182.96890259 232.10682678 C 178.14762878 229.97380066 173.20195007 227.76794434 168.30894470 225.57368469 C 163.41043091 223.25999451 158.50144958 220.89491272 153.61671448 218.48342896 C 148.71388245 216.03051758 143.83445740 213.57063293 138.95057678 211.06019592 C 134.09399414 208.58749390 129.26838684 206.12786865 124.48170471 203.67959595 C 119.78054047 201.24534607 115.21495819 198.80999756 110.75659180 196.34982300 C 106.43241882 194.09790039 102.29595184 191.93847656 98.38334656 189.88056946 C 94.74607849 187.98037720 91.45199585 186.21794128 88.56035614 184.57904053 C 86.17716980 183.02925110 84.27963257 181.69569397 82.99432373 180.63064575 C 82.40451813 179.70573425 82.57659149 178.94601440 83.54096222 178.33485413 C 85.20832825 177.82286072 87.46308899 177.23829651 90.31134796 176.71765137 C 93.60642242 176.23475647 97.32286072 175.80830383 101.41469574 175.44955444 C 105.77815247 175.07562256 110.39207458 174.81990051 115.19425201 174.64840698 C 120.13198090 174.50207520 125.16545105 174.52214050 130.25123596 174.67265320 C 135.32885742 175.02436829 140.41746521 175.55380249 145.38938904 176.29608154 C 150.31538391 177.22077942 155.18319702 178.35104370 159.88070679 179.69895935 C 164.48933411 181.25712585 168.96530151 183.00241089 173.29985046 184.93270874 C 177.54177856 186.93125916 181.68629456 189.08790588 185.71389771 191.36106873 C 189.63920593 193.70870972 193.54177856 196.16007996 197.36203003 198.65902710 C 201.17170715 201.13392639 204.92158508 203.77346802 208.63323975 206.41641235 C 212.22779846 209.22088623 215.76991272 212.16954041 219.23599243 215.22076416 C 222.86875916 218.14897156 226.52130127 221.03929138 246.40525818 242.38594055" stroke-width="0.0" fill="rgb(50, 167, 232)" opacity="1.0" stroke="rgb(244, 248, 248)" stroke-opacity="0.0" stroke-linecap="round" stroke-linejoin="round"/>
    <path d="M 410.00051880 191.10449219 C 406.37564087 193.19348145 402.68682861 195.19842529 399.00610352 197.24009705 C 395.36120605 199.30319214 391.68594360 201.35231018 387.97885132 203.38522339 C 384.28717041 205.43557739 380.47207642 207.40255737 376.66220093 209.43765259 C 372.82012939 211.50465393 368.86758423 213.57176208 364.83053589 215.59504700 C 360.74813843 217.63142395 356.53402710 219.74855042 352.24673462 221.83618164 C 347.86791992 223.92652893 343.38391113 226.05767822 338.75762939 228.14248657 C 334.09762573 230.21713257 329.33047485 232.27243042 324.44696045 234.32714844 C 319.56539917 236.27188110 314.60195923 238.19552612 309.61880493 240.03826904 C 304.64797974 241.79025269 299.71173096 243.48464966 294.92153931 245.16142273 C 290.23553467 246.70176697 285.69042969 248.06347656 281.39297485 249.33253479 C 277.35189819 250.41465759 273.62747192 251.43356323 270.35528564 252.32336426 C 267.54119873 253.05714417 265.14172363 253.46974182 263.37951660 253.51943970 C 262.12927246 253.07748413 261.46347046 252.16748047 261.34158325 250.81225586 C 261.72229004 249.07814026 262.59490967 247.02674866 263.95986938 244.70156860 C 265.76519775 242.18582153 267.97802734 239.49502563 270.54666138 236.63716125 C 273.35119629 233.59959412 276.41497803 230.48205566 279.61846924 227.27767944 C 283.00164795 223.94865417 286.47515869 220.65725708 290.08459473 217.37454224 C 293.78366089 214.09228516 297.59307861 210.89253235 301.43884277 207.79074097 C 305.36770630 204.75393677 309.35745239 201.89022827 313.38925171 199.05290222 C 317.41537476 196.33612061 321.56506348 193.82380676 325.68399048 191.40863037 C 329.86294556 189.10922241 334.07083130 186.95039368 338.30609131 185.01264954 C 342.58911133 183.17562866 346.93762207 181.52473450 351.20303345 180.01129150 C 355.54846191 178.74932861 359.86837769 177.64472961 364.20999146 176.72399902 C 368.42764282 175.92987061 372.68496704 175.33088684 376.83090210 174.85983276 C 380.93551636 174.50131226 384.97503662 174.28341675 388.88839722 174.21884155 C 392.71859741 174.29887390 396.41171265 174.47973633 400.01086426 174.70919800 C 403.47543335 174.87921143 406.87878418 175.02447510 410.07632446 175.26315308 C 413.21441650 175.61354065 416.29782104 175.93905640 419.20843506 176.28912354 C 422.01605225 176.68475342 424.78918457 177.24501038 427.43981934 178.06666565 C 430.08294678 178.98898315 432.70053101 180.01449585 410.00051880 191.10449219" stroke-width="0.0" fill="rgb(48, 167, 230)" opacity="1.0" stroke="rgb(0, 158, 148)" stroke-opacity="0.0" stroke-linecap="round" stroke-linejoin="round"/>
    <path d="M 238.66281128 280.06210327 C 235.62486267 284.56890869 232.37393188 288.95324707 228.86286926 293.12615967 C 225.25350952 297.26055908 221.57752991 301.36306763 217.65364075 305.23141479 C 213.48722839 308.94622803 209.22404480 312.59207153 204.90591431 316.14080811 C 200.40132141 319.43041992 195.73583984 322.48306274 190.88177490 325.25268555 C 185.87852478 327.70526123 180.73182678 329.83038330 175.56007385 331.62118530 C 170.39927673 333.11071777 165.18435669 334.07049561 160.04719543 334.60324097 C 155.03555298 335.01010132 150.23896790 335.20022583 145.80140686 335.17135620 C 141.66906738 334.90103149 138.07104492 334.51858521 135.05656433 333.97134399 C 132.71173096 333.35498047 131.17298889 332.56643677 130.49554443 331.77117920 C 130.85234070 330.95254517 132.15786743 330.13580322 134.26651001 329.15487671 C 137.03964233 328.03918457 140.47552490 326.74972534 144.40711975 325.28524780 C 148.70356750 323.47537231 153.37135315 321.39160156 158.24151611 319.07040405 C 163.24418640 316.56613159 168.41871643 313.87945557 173.68415833 311.10675049 C 178.92907715 308.19900513 184.14112854 305.19662476 189.26162720 302.14205933 C 194.25212097 299.03265381 199.16218567 295.99984741 203.88038635 292.98605347 C 208.52880859 290.12619019 212.94781494 287.34609985 217.19285583 284.69390869 C 221.24009705 282.07101440 225.05041504 279.56362915 228.66815186 277.15374756 C 232.12480164 274.96109009 235.34489441 272.82830811 238.34471130 270.77731323 C 241.20880127 268.89114380 244.02217102 267.29470825 246.70425415 265.85092163 C 249.14590454 264.25299072 251.39558411 262.50738525 238.66281128 280.06210327" stroke-width="0.0" fill="rgb(63, 123, 181)" opacity="1.0" stroke="rgb(29, 128, 151)" stroke-opacity="0.0" stroke-linecap="round" stroke-linejoin="round"/>
    <path d="M 266.56265259 265.67144775 C 271.31188965 268.93182373 276.14685059 272.17532349 281.03387451 275.30627441 C 285.96502686 278.44393921 290.94415283 281.55963135 295.97204590 284.72216797 C 301.01123047 287.93118286 306.10345459 291.16775513 311.24893188 294.39584351 C 316.33764648 297.78186035 321.47253418 301.11138916 326.66021729 304.35641479 C 331.90216064 307.49526978 337.14639282 310.52795410 342.38931274 313.36795044 C 347.52679443 316.14736938 352.56109619 318.69085693 357.43878174 321.02453613 C 362.09149170 323.10626221 366.45098877 324.94696045 370.40756226 326.53662109 C 373.89920044 327.86944580 376.81521606 328.93139648 379.05838013 329.86221313 C 380.44421387 330.76986694 381.01586914 331.58923340 380.59277344 332.38168335 C 379.26419067 333.11407471 377.14215088 333.81921387 374.37191772 334.41842651 C 370.97851562 334.85665894 367.12963867 335.14666748 362.78121948 335.25970459 C 358.18099976 335.22360229 353.27047729 334.88000488 348.23712158 334.13500977 C 343.01052856 333.17266846 337.76812744 331.91458130 332.53869629 330.27130127 C 327.41122437 328.25094604 322.43496704 325.78308105 317.55422974 322.95800781 C 312.83230591 319.85552979 308.26913452 316.52761841 303.90676880 313.02023315 C 299.68988037 309.42453003 295.66903687 305.69180298 291.86157227 301.92041016 C 288.25961304 298.11535645 284.79675293 294.33801270 281.52716064 290.55581665 C 278.47338867 286.82165527 275.71539307 282.99536133 273.24880981 279.11666870 C 270.89407349 275.29354858 268.42446899 271.67877197 265.76000977 268.28936768 C 262.87728882 265.09475708 259.89309692 262.00180054 266.56265259 265.67144775" stroke-width="0.0" fill="rgb(63, 123, 182)" opacity="1.0" stroke="rgb(49, 126, 148)" stroke-opacity="0.0" stroke-linecap="round" stroke-linejoin="round"/>
    <path d="M 262.57064819 291.27087402 C 261.86508179 295.76583862 261.21759033 300.10623169 260.51629639 304.17669678 C 259.76751709 307.89160156 258.89270020 311.03451538 257.95013428 313.52627563 C 257.08599854 315.25933838 256.18722534 316.06079102 255.18218994 315.86395264 C 254.13966370 314.61181641 253.19808960 312.42230225 252.37098694 309.37493896 C 251.56315613 305.60116577 250.89857483 301.16955566 250.39022827 296.16448975 C 249.94430542 290.72439575 249.80664062 284.98217773 249.83612061 278.98992920 C 249.95988464 272.91607666 250.18382263 266.73803711 250.25762939 260.72674561 C 249.94003296 254.92416382 249.70498657 249.42314148 249.80543518 244.29537964 C 250.29414368 239.76313782 251.04054260 235.93017578 251.49526978 232.73138428 C 250.97659302 230.20960999 249.80210876 228.17648315 248.55696106 226.29339600 C 247.76321411 224.38113403 247.53590393 222.52952576 247.92488098 220.85377502 C 248.94833374 219.31317139 250.36712646 217.98434448 251.92297363 216.89178467 C 253.69108582 216.14231873 255.56088257 215.77197266 257.52468872 215.83811951 C 259.36334229 216.26538086 261.05523682 217.05918884 262.42794800 218.10649109 C 263.49462891 219.55146790 264.17831421 221.16601562 264.53170776 222.87026978 C 264.44979858 224.53330994 263.91412354 226.11543274 262.98406982 227.58122253 C 261.84213257 228.91403198 260.85867310 230.28895569 260.37417603 231.84968567 C 260.64892578 233.70454407 261.28442383 235.88604736 261.93942261 238.43588257 C 262.37564087 241.21763611 262.62136841 244.21673584 262.58105469 247.25067139 C 262.17642212 250.41104126 261.59936523 253.60313416 262.57064819 291.27087402" stroke-width="0.0" fill="rgb(20, 49, 93)" opacity="1.0" stroke="rgb(42, 47, 59)" stroke-opacity="0.0" stroke-linecap="round" stroke-linejoin="round"/>
  </g>
</svg>
