<svg xmlns="http://www.w3.org/2000/svg" viewBox="0 0 512 512" height="512.0px" width="512.0px">
<path id="" fill="#000033" fill-opacity="1.0"  filling="0" d="M0 0 C171 0 341 0 512 0 C512 171 512 341 512 512 C341 512 171 512 0 512 C0 341 0 171 0 0"></path>
<path id="" fill="#c0c0c0" fill-opacity="1.0"  filling="0" d="M141 175 C201 175 261 175 321 175 C330 175 339 179 346 185 C352 192 356 201 356 210 C356 219 352 228 346 235 C339 241 330 245 321 245 C261 245 201 245 141 245 C132 245 123 241 116 235 C110 228 106 219 106 210 C106 201 110 192 116 185 C123 179 132 175 141 175"></path>
<path id="" fill="#a0a0a0" fill-opacity="1.0"  filling="0" d="M356 175 C373 187 389 198 406 210 C389 222 373 233 356 245 C356 222 356 198 356 175"></path>
<path id="" fill="#a0a0a0" fill-opacity="1.0"  filling="0" d="M202 223 C185 240 168 256 152 273 C185 268 218 263 252 258 C235 246 218 235 202 223"></path>
<path id="" fill="#a0a0a0" fill-opacity="1.0"  filling="0" d="M202 131 C218 148 235 165 252 181 C218 176 185 171 152 166 C168 155 185 143 202 131"></path>
<path id="" fill="#3366ff" fill-opacity="1.0"  filling="0" d="M121 195 C121 199 119 203 117 206 C114 208 110 210 106 210 C102 210 98 208 95 206 C93 203 91 199 91 195 C91 191 93 187 95 184 C98 182 102 180 106 180 C110 180 114 182 117 184 C119 187 121 191 121 195"></path>
<path id="" fill="#3366ff" fill-opacity="1.0"  filling="0" d="M121 210 C121 214 119 218 117 221 C114 223 110 225 106 225 C102 225 98 223 95 221 C93 218 91 214 91 210 C91 206 93 202 95 199 C98 197 102 195 106 195 C110 195 114 197 117 199 C119 202 121 206 121 210"></path>
<path id="" fill="#3366ff" fill-opacity="1.0"  filling="0" d="M121 225 C121 229 119 233 117 236 C114 238 110 240 106 240 C102 240 98 238 95 236 C93 233 91 229 91 225 C91 221 93 217 95 214 C98 212 102 210 106 210 C110 210 114 212 117 214 C119 217 121 221 121 225"></path>
<path id="" fill="#66ccff" fill-opacity="1.0"  filling="0" d="M106 199 C72 196 39 192 6 189 C6 186 6 184 6 181 C40 184 73 188 106 191 C106 194 106 196 106 199"></path>
<path id="" fill="#66ccff" fill-opacity="1.0"  filling="0" d="M106 214 C73 214 39 214 6 214 C6 211 6 209 6 206 C39 206 73 206 106 206 C106 209 106 211 106 214"></path>
<path id="" fill="#66ccff" fill-opacity="1.0"  filling="0" d="M106 229 C73 232 40 236 6 239 C6 236 6 234 6 231 C39 228 72 224 106 221 C106 224 106 226 106 229"></path></svg>